<?xml version="1.0" encoding="UTF-8" standalone="no"?>
<!DOCTYPE svg PUBLIC "-//W3C//DTD SVG 1.1//EN" "http://www.w3.org/Graphics/SVG/1.1/DTD/svg11.dtd">
<svg width="100%" height="100%" viewBox="0 0 1500 1500" version="1.1" xmlns="http://www.w3.org/2000/svg" xmlns:xlink="http://www.w3.org/1999/xlink" xml:space="preserve" xmlns:serif="http://www.serif.com/" style="fill-rule:evenodd;clip-rule:evenodd;stroke-linejoin:round;stroke-miterlimit:2;">
    <g transform="matrix(1.66446,0,0,1.66446,-514.354,-402.251)">
        <path d="M471.894,770.005L318.23,779.599C316.061,761.797 314.947,743.707 314.947,725.36C314.947,480.071 514.09,280.928 759.378,280.928C1004.32,280.928 1203.25,479.514 1203.81,724.314L1116.06,729.792C1098.91,836.406 1041.9,966.181 881.009,1053.45C881.009,1053.45 970.706,910.619 930.627,741.367C819.116,748.327 701.845,755.648 589.501,762.661C572.298,871.881 630.092,960.093 630.092,960.093C532.946,909.798 489.834,836.17 471.894,770.005ZM544.74,603.382C534.692,589.777 528.244,573.259 526.925,555.152C523.208,504.131 561.613,459.691 612.634,455.975C663.655,452.258 708.094,490.663 711.811,541.684C713.13,559.791 709.143,577.069 701.173,591.987L544.74,603.382ZM792.132,586.729C782.063,573.139 775.59,556.631 774.243,538.525C770.449,487.511 808.786,443.013 859.801,439.218C910.816,435.424 955.314,473.761 959.108,524.776C960.455,542.882 956.495,560.166 948.547,575.096L792.132,586.729Z" style="fill:white;"/>
    </g>
</svg>
