<svg xmlns="http://www.w3.org/2000/svg" viewBox="0 0 500 500"><g id="freepik--background-complete--inject-36"><rect y="382.4" width="500" height="0.25" style="fill:#ebebeb"></rect><rect x="416.78" y="398.49" width="18.89" height="0.25" style="fill:#ebebeb"></rect><rect x="293.05" y="396.75" width="29.47" height="0.25" style="fill:#ebebeb"></rect><rect x="368.67" y="389.21" width="47.11" height="0.25" style="fill:#ebebeb"></rect><rect x="52.46" y="390.89" width="10.97" height="0.25" style="fill:#ebebeb"></rect><rect x="72.33" y="390.89" width="38.56" height="0.25" style="fill:#ebebeb"></rect><rect x="171" y="395.11" width="54.15" height="0.25" style="fill:#ebebeb"></rect><path d="M237,337.8H43.91a5.71,5.71,0,0,1-5.7-5.71V60.66A5.71,5.71,0,0,1,43.91,55H237a5.71,5.71,0,0,1,5.71,5.71V332.09A5.71,5.71,0,0,1,237,337.8ZM43.91,55.2a5.46,5.46,0,0,0-5.45,5.46V332.09a5.46,5.46,0,0,0,5.45,5.46H237a5.47,5.47,0,0,0,5.46-5.46V60.66A5.47,5.47,0,0,0,237,55.2Z" style="fill:#ebebeb"></path><path d="M453.31,337.8H260.21a5.72,5.72,0,0,1-5.71-5.71V60.66A5.72,5.72,0,0,1,260.21,55h193.1A5.71,5.71,0,0,1,459,60.66V332.09A5.71,5.71,0,0,1,453.31,337.8ZM260.21,55.2a5.47,5.47,0,0,0-5.46,5.46V332.09a5.47,5.47,0,0,0,5.46,5.46h193.1a5.47,5.47,0,0,0,5.46-5.46V60.66a5.47,5.47,0,0,0-5.46-5.46Z" style="fill:#ebebeb"></path><rect x="416.78" y="398.49" width="18.89" height="0.25" style="fill:#ebebeb"></rect><rect x="293.05" y="396.75" width="29.47" height="0.25" style="fill:#ebebeb"></rect><rect x="368.67" y="389.21" width="47.11" height="0.25" style="fill:#ebebeb"></rect><rect x="52.46" y="390.89" width="10.97" height="0.25" style="fill:#ebebeb"></rect><rect x="72.33" y="390.89" width="38.56" height="0.25" style="fill:#ebebeb"></rect><rect x="171" y="395.11" width="54.15" height="0.25" style="fill:#ebebeb"></rect><rect x="381.87" y="162.22" width="23.03" height="4.78" transform="translate(786.76 329.21) rotate(180)" style="fill:#e6e6e6"></rect><rect x="132.14" y="162.22" width="249.72" height="4.78" transform="translate(514.01 329.21) rotate(180)" style="fill:#f0f0f0"></rect><polygon points="273.79 82.71 334.83 82.71 325.21 162.22 264.17 162.22 273.79 82.71" style="fill:#f5f5f5"></polygon><polygon points="284.9 93.13 321.2 93.13 314.11 151.79 277.8 151.79 284.9 93.13" style="fill:#fafafa"></polygon><polygon points="185.31 86.34 259.36 86.34 250.18 162.22 176.14 162.22 185.31 86.34" style="fill:#f5f5f5"></polygon><polygon points="195.91 96.28 246.35 96.28 239.58 152.27 189.14 152.27 195.91 96.28" style="fill:#fafafa"></polygon><polygon points="313.63 109.93 364.65 109.93 358.33 162.22 307.3 162.22 313.63 109.93" style="fill:#f0f0f0"></polygon><polygon points="320.93 116.78 355.69 116.78 351.02 155.36 316.26 155.36 320.93 116.78" style="fill:#fafafa"></polygon><path d="M435.35,230.72H403.81a25.08,25.08,0,0,0-24,19.14l-8.33,34.8-17.12-.06h-.06a17,17,0,0,0-16.7,13.82l-2.28,11.91a8.81,8.81,0,0,0-7.23,6.61h12.09L326,382.4h3.62l14.22-65.46h9.94L339.51,382.4h3.62l14.22-65.46H397l14.22,65.46h3.62l-14.22-65.46h9.94l14.22,65.46h3.62l-14.22-65.46h-1.49a25,25,0,0,0,24-19.12l12-50A13.61,13.61,0,0,0,435.35,230.72Zm-67,66.86a16.57,16.57,0,0,1-15.87,12.66H339.84l2.12-11a12.58,12.58,0,0,1,12.33-10.2h0l16.06.05Z" style="fill:#e6e6e6"></path><rect x="193.79" y="222.11" width="34.43" height="152.17" transform="translate(422 596.39) rotate(180)" style="fill:#f0f0f0"></rect><rect x="70.04" y="374.28" width="151.56" height="8.12" transform="translate(291.65 756.68) rotate(180)" style="fill:#f0f0f0"></rect><rect x="63.43" y="222.11" width="130.36" height="152.17" style="fill:#f5f5f5"></rect><rect x="76.97" y="237.88" width="103.29" height="66.09" style="fill:#f0f0f0"></rect><rect x="76.97" y="316.5" width="103.29" height="42.01" style="fill:#f0f0f0"></rect><rect x="99.22" y="234.75" width="58.78" height="5.76" rx="2.58" transform="translate(257.22 475.25) rotate(180)" style="fill:#f5f5f5"></rect><rect x="99.22" y="313.62" width="58.78" height="5.76" rx="2.58" transform="translate(257.22 633.01) rotate(180)" style="fill:#f5f5f5"></rect><path d="M329.26,230.72H297.72a25.08,25.08,0,0,0-24,19.14l-8.33,34.8-17.12-.06h0a17,17,0,0,0-16.71,13.82l-2.28,11.91a8.82,8.82,0,0,0-7.23,6.61h12.1L219.87,382.4h3.61l14.22-65.46h10L233.43,382.4H237l14.22-65.46h39.66l14.22,65.46h3.61l-14.22-65.46h10L318.7,382.4h3.61l-14.22-65.46H306.6a25,25,0,0,0,24-19.12l12-50A13.62,13.62,0,0,0,329.26,230.72Zm-67,66.86a16.59,16.59,0,0,1-15.88,12.66H233.76l2.12-11a12.57,12.57,0,0,1,12.33-10.2h0l16.07.05Z" style="fill:#e6e6e6"></path></g><g id="freepik--Shadow--inject-36"><ellipse id="freepik--path--inject-36" cx="250" cy="416.24" rx="193.89" ry="11.32" style="fill:#f5f5f5"></ellipse></g><g id="freepik--Envelope--inject-36"><rect x="409.62" y="239.36" width="0.95" height="12.86" transform="translate(-21.64 40.37) rotate(-5.49)" style="fill:#407BFF"></rect><rect x="410.92" y="256.65" width="0.95" height="5.19" transform="translate(-22.91 40.54) rotate(-5.49)" style="fill:#407BFF"></rect><rect x="176.14" y="216.98" width="234.5" height="139.6" transform="translate(612.87 544.18) rotate(174.51)" style="fill:#407BFF"></rect><rect x="176.14" y="216.98" width="234.5" height="139.6" transform="translate(612.87 544.18) rotate(174.51)" style="opacity:0.1"></rect><polygon points="294 293.1 170 228.52 403.42 206.08 294 293.1" style="fill:#263238;opacity:0.1"></polygon><path d="M265.75,152.38,170,228.52l233.42-22.44-108.5-56.5A26.9,26.9,0,0,0,265.75,152.38Z" style="fill:#407BFF"></path><path d="M394.75,206.92,291.66,153.23a20.28,20.28,0,0,0-22,2.11l-91,72.34Z" style="fill:#263238;opacity:0.2"></path><polygon points="351.64 205.21 383.23 213.65 383.99 221.53 294 293.1 192.02 239.99 190.5 224.23 351.64 205.21" style="fill:#fff"></polygon><polyline points="351.64 205.21 357.61 221.75 383.23 213.65" style="fill:#e0e0e0"></polyline><polyline points="351.64 205.21 354.71 218.85 383.23 213.65" style="fill:#f0f0f0"></polyline><path d="M312.65,278.24l104.13,66.81L183.36,367.48l89.49-85.42A32.35,32.35,0,0,1,312.65,278.24Z" style="fill:#407BFF"></path></g></svg>